{"asset":{"version":"2.0","generator":"Anomicon authored containment study"},"scene":0,"scenes":[{"nodes":[0]}],"nodes":[{"name":"AnomiconInteractivePivot","children":[1]},{"name":"ContainmentModel","mesh":0}],"meshes":[{"name":"ContainmentStudy","primitives":[{"attributes":{"POSITION":0,"NORMAL":1},"indices":2,"material":0,"mode":4},{"attributes":{"POSITION":0,"NORMAL":1},"indices":3,"material":1,"mode":4},{"attributes":{"POSITION":0,"NORMAL":1},"indices":4,"material":1,"mode":4},{"attributes":{"POSITION":0,"NORMAL":1},"indices":5,"material":2,"mode":4},{"attributes":{"POSITION":0,"NORMAL":1},"indices":6,"material":2,"mode":4},{"attributes":{"POSITION":0,"NORMAL":1},"indices":7,"material":3,"mode":4},{"attributes":{"POSITION":0,"NORMAL":1},"indices":8,"material":3,"mode":4},{"attributes":{"POSITION":0,"NORMAL":1},"indices":9,"material":3,"mode":4},{"attributes":{"POSITION":0,"NORMAL":1},"indices":10,"material":3,"mode":4},{"attributes":{"POSITION":0,"NORMAL":1},"indices":11,"material":4,"mode":4}]}],"materials":[{"name":"graphite","pbrMetallicRoughness":{"baseColorFactor":[0.07,0.1,0.16,1],"metallicFactor":0.82,"roughnessFactor":0.3}},{"name":"alloy","pbrMetallicRoughness":{"baseColorFactor":[0.23,0.3,0.41,1],"metallicFactor":0.65,"roughnessFactor":0.35}},{"name":"warning","pbrMetallicRoughness":{"baseColorFactor":[0.75,0.45,0.08,1],"metallicFactor":0.5,"roughnessFactor":0.25}},{"name":"status","emissiveFactor":[0.08,0.42,0.95],"pbrMetallicRoughness":{"baseColorFactor":[0.03,0.2,0.45,1],"metallicFactor":0.05,"roughnessFactor":0.2}},{"name":"ground","pbrMetallicRoughness":{"baseColorFactor":[0.02,0.035,0.06,1],"metallicFactor":0.35,"roughnessFactor":0.75}}],"buffers":[{"byteLength":23712,"uri":"data:application/octet-stream;base64,"}],"bufferViews":[{"buffer":0,"byteOffset":0,"byteLength":10944,"target":34962},{"buffer":0,"byteOffset":10944,"byteLength":10944,"target":34962},{"buffer":0,"byteOffset":21888,"byteLength":1824,"target":34963}],"accessors":[{"bufferView":0,"componentType":5126,"count":912,"type":"VEC3","min":[-1.0901778483633184,-0.99,-1.0901778483633182],"max":[1.0901778483633182,1.07,1.0901778483633182]},{"bufferView":1,"componentType":5126,"count":912,"type":"VEC3"},{"bufferView":2,"byteOffset":0,"componentType":5123,"count":96,"type":"SCALAR"},{"bufferView":2,"byteOffset":192,"componentType":5123,"count":96,"type":"SCALAR"},{"bufferView":2,"byteOffset":384,"componentType":5123,"count":96,"type":"SCALAR"},{"bufferView":2,"byteOffset":576,"componentType":5123,"count":192,"type":"SCALAR"},{"bufferView":2,"byteOffset":960,"componentType":5123,"count":192,"type":"SCALAR"},{"bufferView":2,"byteOffset":1344,"componentType":5123,"count":36,"type":"SCALAR"},{"bufferView":2,"byteOffset":1416,"componentType":5123,"count":36,"type":"SCALAR"},{"bufferView":2,"byteOffset":1488,"componentType":5123,"count":36,"type":"SCALAR"},{"bufferView":2,"byteOffset":1560,"componentType":5123,"count":36,"type":"SCALAR"},{"bufferView":2,"byteOffset":1632,"componentType":5123,"count":96,"type":"SCALAR"}]}
